<svg xmlns="http://www.w3.org/2000/svg" width="24" height="24" viewBox="0 0 24 24" fill="none">
  <path d="M20 11.5C20 15.6421 16.6421 19 12.5 19C11.3024 19 10.1704 18.7201 9.16565 18.2224L5 19.5L6.27764 15.3344C5.77991 14.3296 5.5 13.1976 5.5 12C5.5 7.85786 8.85786 4.5 13 4.5C17.1421 4.5 20.5 7.85786 20.5 12" stroke="#000000" stroke-width="2" stroke-linecap="round" stroke-linejoin="round"/>
  <path d="M10 10.3C10.2 9.7 10.8 9.3 11.4 9.3H11.8C12.2 9.3 12.6 9.6 12.7 10L13 11.1C13.1 11.5 13 11.9 12.7 12.1L12.2 12.5C12.9 13.7 14 14.6 15.3 15.2L15.7 14.7C15.9 14.4 16.3 14.3 16.7 14.4L17.8 14.7C18.2 14.8 18.5 15.2 18.5 15.6V16C18.5 16.7 18 17.3 17.3 17.4C16.8 17.5 16.2 17.5 15.6 17.3C12.9 16.4 10.7 14.1 9.8 11.4C9.6 10.8 9.6 10.2 9.7 9.7" stroke="#000000" stroke-width="2" stroke-linecap="round" stroke-linejoin="round"/>
</svg>
